# xmcd
#
# Track frame offsets:
#	150
#	22219
#	38092
#	63945
#	87807
#	103194
#	120813
#	138414
#	155630
#	176927
#	196687
#	216572
#	234642
#	259549
#	280601
#	302547
#
# Disc length: 4420 seconds
#
# Revision: 1
# Processed by: cddbd v1.5PL3 Copyright (c) Steve Scherf et al.
# Submitted via: audiograbber 1.83.01
#
DISCID=db114210
DTITLE=Gerd Köster - Dirk Raulf - NOX - Lieder zur Nacht
DYEAR=1900
DGENRE=
TTITLE0=Jeder Hund
TTITLE1=Blauer Hafen
TTITLE2=Vampirgefühl
TTITLE3=Nie getanzt
TTITLE4=Blödgeküsst
TTITLE5=Perlentaucher
TTITLE6=Eine Frage der Zeit
TTITLE7=Jägerlatein
TTITLE8=Alles ist neu
TTITLE9=Oktober
TTITLE10=Misanthrop
TTITLE11=Wenn es nach mir ging
TTITLE12=Fliegen
TTITLE13=Logischer Standpunkt
TTITLE14=Morgenmond
TTITLE15=Flaschenpost
EXTD=
EXTT0=
EXTT1=
EXTT2=
EXTT3=
EXTT4=
EXTT5=
EXTT6=
EXTT7=
EXTT8=
EXTT9=
EXTT10=
EXTT11=
EXTT12=
EXTT13=
EXTT14=
EXTT15=
PLAYORDER=
